<svg width="384.9474731445312px" height="122.021240234375px" xmlns="http://www.w3.org/2000/svg" viewBox="57.52626342773439 13.9893798828125 384.9474731445312 122.021240234375" style="background: rgba(0, 0, 0, 0);" preserveAspectRatio="xMidYMid"><defs><linearGradient id="editing-gradient-gradient" x1="0" x2="1" y1="0.5" y2="0.5" gradientUnits="objectBoundingBox"><stop offset="0" stop-color="#f0f"></stop><stop offset="1" stop-color="#0ff"></stop></linearGradient></defs><g><g transform="translate(115.52125787734985, 98.67218780517578)"><path d="M2.69-39.68L2.69-39.68L2.69-39.68Q3.58-41.47 5.54-42.46L5.54-42.46L5.54-42.46Q7.49-43.46 10.18-43.46L10.18-43.46L10.18-43.46Q14.40-43.46 16.93-40.42L16.93-40.42L16.93-40.42Q19.46-37.38 19.46-30.72L19.46-30.72L19.46-7.87L34.11-42.18L41.66-42.18L43.39-9.79L43.20-7.94L58.43-42.18L67.20-42.18L46.72 0L33.09 0L31.81-19.46L23.36 0L7.94 0L6.02-30.72L6.02-30.72Q5.82-34.18 4.90-36.45L4.90-36.45L4.90-36.45Q3.97-38.72 2.69-39.68ZM89.28-10.82L89.28-10.82L89.28-10.82Q90.88-9.73 90.88-7.33L90.88-7.33L90.88-7.33Q90.88-4.93 89.66-3.39L89.66-3.39L89.66-3.39Q88.45-1.86 86.46-0.83L86.46-0.83L86.46-0.83Q82.37 1.28 77.95 1.28L77.95 1.28L77.95 1.28Q73.54 1.28 70.94 0.32L70.94 0.32L70.94 0.32Q68.35-0.64 66.62-2.43L66.62-2.43L66.62-2.43Q63.23-5.82 63.23-12.03L63.23-12.03L63.23-12.03Q63.23-21.70 68.48-27.58L68.48-27.58L68.48-27.58Q74.11-33.92 83.90-33.92L83.90-33.92L83.90-33.92Q89.98-33.92 92.99-31.36L92.99-31.36L92.99-31.36Q95.23-29.44 95.23-26.30L95.23-26.30L95.23-26.30Q95.23-15.04 75.78-15.04L75.78-15.04L75.78-15.04Q75.52-13.38 75.52-11.97L75.52-11.97L75.52-11.97Q75.52-9.02 76.83-7.90L76.83-7.90L76.83-7.90Q78.14-6.78 80.58-6.78L80.58-6.78L80.58-6.78Q83.01-6.78 85.60-7.90L85.60-7.90L85.60-7.90Q88.19-9.02 89.28-10.82ZM76.22-17.79L76.22-17.79L76.22-17.79Q80.77-17.79 83.39-20.61L83.39-20.61L83.39-20.61Q86.02-23.30 86.02-27.58L86.02-27.58L86.02-27.58Q86.02-29.06 85.47-29.86L85.47-29.86L85.47-29.86Q84.93-30.66 83.84-30.66L83.84-30.66L83.84-30.66Q82.75-30.66 81.82-30.24L81.82-30.24L81.82-30.24Q80.90-29.82 79.94-28.42L79.94-28.42L79.94-28.42Q77.57-25.22 76.22-17.79ZM100.19-1.92L100.19-1.92L100.19-1.92Q98.69-3.58 98.02-6.21L98.02-6.21L98.02-6.21Q97.34-8.83 97.34-13.12L97.34-13.12L97.34-13.12Q97.34-17.41 98.82-21.31L98.82-21.31L98.82-21.31Q100.29-25.22 102.98-28.03L102.98-28.03L102.98-28.03Q108.48-33.92 117.57-33.92L117.57-33.92L117.57-33.92Q120.83-33.92 123.20-32.83L123.20-32.83L134.14-33.92L129.41-8.96L129.41-8.96Q129.22-8.19 129.22-6.78L129.22-6.78L129.22-6.78Q129.22-5.38 130.08-4.48L130.08-4.48L130.08-4.48Q130.94-3.58 132.22-3.46L132.22-3.46L132.22-3.46Q131.58-1.28 129.25 0L129.25 0L129.25 0Q126.91 1.28 124.29 1.28L124.29 1.28L124.29 1.28Q121.66 1.28 119.90 0.29L119.90 0.29L119.90 0.29Q118.14-0.70 117.63-2.37L117.63-2.37L117.63-2.37Q116.61-0.77 114.43 0.26L114.43 0.26L114.43 0.26Q112.26 1.28 109.34 1.28L109.34 1.28L109.34 1.28Q106.43 1.28 104.06 0.51L104.06 0.51L104.06 0.51Q101.70-0.26 100.19-1.92ZM113.70-27.90L113.70-27.90L113.70-27.90Q112.96-26.75 112.32-24.80L112.32-24.80L112.32-24.80Q111.68-22.85 110.62-17.63L110.62-17.63L110.62-17.63Q109.57-12.42 109.57-8.70L109.57-8.70L109.57-8.70Q109.57-4.99 110.14-3.90L110.14-3.90L110.14-3.90Q110.72-2.82 111.74-2.82L111.74-2.82L111.74-2.82Q113.79-2.82 115.30-4.77L115.30-4.77L115.30-4.77Q116.80-6.72 117.38-10.18L117.38-10.18L120.77-28.93L120.77-28.93Q119.42-30.08 117.86-30.08L117.86-30.08L117.86-30.08Q116.29-30.08 115.36-29.57L115.36-29.57L115.36-29.57Q114.43-29.06 113.70-27.90ZM138.62-6.40L138.62-6.40L138.62-6.40Q138.62-8.13 139.52-12.48L139.52-12.48L142.91-29.76L139.14-29.76L139.39-31.68L139.39-31.68Q147.07-33.98 154.50-39.62L154.50-39.62L157.57-39.62L156.03-32.64L161.02-32.64L160.45-29.76L155.52-29.76L152.26-12.48L152.26-12.48Q151.42-8.51 151.42-7.17L151.42-7.17L151.42-7.17Q151.42-4.10 154.11-3.46L154.11-3.46L154.11-3.46Q153.47-1.28 151.17 0L151.17 0L151.17 0Q148.86 1.28 145.60 1.28L145.60 1.28L145.60 1.28Q142.34 1.28 140.48-0.77L140.48-0.77L140.48-0.77Q138.62-2.82 138.62-6.40ZM192.90-7.10L192.90-7.10L192.90-7.10Q192.90-4.29 195.78-3.46L195.78-3.46L195.78-3.46Q195.07-1.09 192.32 0.19L192.32 0.19L192.32 0.19Q190.02 1.28 187.49 1.28L187.49 1.28L187.49 1.28Q184.96 1.28 183.65 0.61L183.65 0.61L183.65 0.61Q182.34-0.06 181.63-1.15L181.63-1.15L181.63-1.15Q180.48-2.82 180.48-5.95L180.48-5.95L180.48-5.95Q180.48-7.81 181.50-12.93L181.50-12.93L182.40-17.79L182.40-17.79Q183.49-23.36 183.49-25.41L183.49-25.41L183.49-25.41Q183.49-28.99 181.50-28.99L181.50-28.99L181.50-28.99Q179.01-28.99 177.41-25.34L177.41-25.34L177.41-25.34Q176.77-23.94 176.32-21.82L176.32-21.82L171.97 0L159.10 1.28L168.13-44.80L180.99-46.08L180.48-43.52L180.48-43.52Q178.69-33.66 177.15-30.34L177.15-30.34L177.15-30.34Q180.74-33.92 187.33-33.92L187.33-33.92L187.33-33.92Q194.30-33.92 195.58-29.31L195.58-29.31L195.58-29.31Q196.03-27.84 196.03-26.56L196.03-26.56L196.03-26.56Q196.03-25.28 195.94-24.29L195.94-24.29L195.94-24.29Q195.84-23.30 195.52-21.50L195.52-21.50L194.69-16.90L193.22-9.66L193.22-9.66Q192.90-8.19 192.90-7.10ZM226.88-10.82L226.88-10.82L226.88-10.82Q228.48-9.73 228.48-7.33L228.48-7.33L228.48-7.33Q228.48-4.93 227.26-3.39L227.26-3.39L227.26-3.39Q226.05-1.86 224.06-0.83L224.06-0.83L224.06-0.83Q219.97 1.28 215.55 1.28L215.55 1.28L215.55 1.28Q211.14 1.28 208.54 0.32L208.54 0.32L208.54 0.32Q205.95-0.64 204.22-2.43L204.22-2.43L204.22-2.43Q200.83-5.82 200.83-12.03L200.83-12.03L200.83-12.03Q200.83-21.70 206.08-27.58L206.08-27.58L206.08-27.58Q211.71-33.92 221.50-33.92L221.50-33.92L221.50-33.92Q227.58-33.92 230.59-31.36L230.59-31.36L230.59-31.36Q232.83-29.44 232.83-26.30L232.83-26.30L232.83-26.30Q232.83-15.04 213.38-15.04L213.38-15.04L213.38-15.04Q213.12-13.38 213.12-11.97L213.12-11.97L213.12-11.97Q213.12-9.02 214.43-7.90L214.43-7.90L214.43-7.90Q215.74-6.78 218.18-6.78L218.18-6.78L218.18-6.78Q220.61-6.78 223.20-7.90L223.20-7.90L223.20-7.90Q225.79-9.02 226.88-10.82ZM213.82-17.79L213.82-17.79L213.82-17.79Q218.37-17.79 220.99-20.61L220.99-20.61L220.99-20.61Q223.62-23.30 223.62-27.58L223.62-27.58L223.62-27.58Q223.62-29.06 223.07-29.86L223.07-29.86L223.07-29.86Q222.53-30.66 221.44-30.66L221.44-30.66L221.44-30.66Q220.35-30.66 219.42-30.24L219.42-30.24L219.42-30.24Q218.50-29.82 217.54-28.42L217.54-28.42L217.54-28.42Q215.17-25.22 213.82-17.79ZM255.04-17.98L255.04-17.98L255.04-17.98Q257.34-22.08 257.34-26.24L257.34-26.24L257.34-26.24Q257.34-28.99 255.36-28.99L255.36-28.99L255.36-28.99Q253.82-28.99 252.22-26.37L252.22-26.37L252.22-26.37Q250.56-23.74 250.05-20.35L250.05-20.35L246.72 0L233.47 1.28L240-32.64L250.56-33.92L249.41-27.46L249.41-27.46Q252.54-33.92 259.58-33.92L259.58-33.92L259.58-33.92Q263.30-33.92 265.31-32L265.31-32L265.31-32Q267.33-30.08 267.33-26.14L267.33-26.14L267.33-26.14Q267.33-22.21 264.74-19.71L264.74-19.71L264.74-19.71Q262.14-17.22 257.73-17.22L257.73-17.22L257.73-17.22Q255.81-17.22 255.04-17.98Z" fill="url(#editing-gradient-gradient)"></path></g></g><style>text {
  font-size: 64px;
  font-family: Arial Black;
  dominant-baseline: central;
  text-anchor: middle;
}</style></svg>