<svg width="384.947" height="122.021" xmlns="http://www.w3.org/2000/svg" viewBox="57.526 13.989 384.947 122.021" style="background:0 0" preserveAspectRatio="xMidYMid"><defs><linearGradient id="editing-gradient-gradient" x1="0" x2="1" y1=".5" y2=".5" gradientUnits="objectBoundingBox"><stop offset="0" stop-color="#f0f"/><stop offset="1" stop-color="#0ff"/></linearGradient></defs><path d="M2.69-39.68q.89-1.79 2.85-2.78 1.95-1 4.64-1 4.22 0 6.75 3.04 2.53 3.04 2.53 9.7v22.85l14.65-34.31h7.55l1.73 32.39-.19 1.85 15.23-34.24h8.77L46.72 0H33.09l-1.28-19.46L23.36 0H7.94L6.02-30.72q-.2-3.46-1.12-5.73-.93-2.27-2.21-3.23zm86.59 28.86q1.6 1.09 1.6 3.49 0 2.4-1.22 3.94-1.21 1.53-3.2 2.56-4.09 2.11-8.51 2.11-4.41 0-7.01-.96-2.59-.96-4.32-2.75-3.39-3.39-3.39-9.6 0-9.67 5.25-15.55 5.63-6.34 15.42-6.34 6.08 0 9.09 2.56 2.24 1.92 2.24 5.06 0 11.26-19.45 11.26-.26 1.66-.26 3.07 0 2.95 1.31 4.07t3.75 1.12q2.43 0 5.02-1.12 2.59-1.12 3.68-2.92zm-13.06-6.97q4.55 0 7.17-2.82 2.63-2.69 2.63-6.97 0-1.48-.55-2.28-.54-.8-1.63-.8-1.09 0-2.02.42-.92.42-1.88 1.82-2.37 3.2-3.72 10.63zm23.97 15.87q-1.5-1.66-2.17-4.29-.68-2.62-.68-6.91t1.48-8.19q1.47-3.91 4.16-6.72 5.5-5.89 14.59-5.89 3.26 0 5.63 1.09l10.94-1.09-4.73 24.96q-.19.77-.19 2.18 0 1.4.86 2.3.86.9 2.14 1.02-.64 2.18-2.97 3.46-2.34 1.28-4.96 1.28-2.63 0-4.39-.99-1.76-.99-2.27-2.66-1.02 1.6-3.2 2.63-2.17 1.02-5.09 1.02-2.91 0-5.28-.77-2.36-.77-3.87-2.43zM113.7-27.9q-.74 1.15-1.38 3.1-.64 1.95-1.7 7.17-1.05 5.21-1.05 8.93 0 3.71.57 4.8.58 1.08 1.6 1.08 2.05 0 3.56-1.95 1.5-1.95 2.08-5.41l3.39-18.75q-1.35-1.15-2.91-1.15-1.57 0-2.5.51-.93.51-1.66 1.67zm24.92 21.5q0-1.73.9-6.08l3.39-17.28h-3.77l.25-1.92q7.68-2.3 15.11-7.94h3.07l-1.54 6.98h4.99l-.57 2.88h-4.93l-3.26 17.28q-.84 3.97-.84 5.31 0 3.07 2.69 3.71-.64 2.18-2.94 3.46-2.31 1.28-5.57 1.28-3.26 0-5.12-2.05-1.86-2.05-1.86-5.63zm54.28-.7q0 2.81 2.88 3.64-.71 2.37-3.46 3.65-2.3 1.09-4.83 1.09-2.53 0-3.84-.67t-2.02-1.76q-1.15-1.67-1.15-4.8 0-1.86 1.02-6.98l.9-4.86q1.09-5.57 1.09-7.62 0-3.58-1.99-3.58-2.49 0-4.09 3.65-.64 1.4-1.09 3.52L171.97 0 159.1 1.28l9.03-46.08 12.86-1.28-.51 2.56q-1.79 9.86-3.33 13.18 3.59-3.58 10.18-3.58 6.97 0 8.25 4.61.45 1.47.45 2.75t-.09 2.27q-.1.99-.42 2.79l-.83 4.6-1.47 7.24q-.32 1.47-.32 2.56zm33.98-3.72q1.6 1.09 1.6 3.49 0 2.4-1.22 3.94-1.21 1.53-3.2 2.56-4.09 2.11-8.51 2.11-4.41 0-7.01-.96-2.59-.96-4.32-2.75-3.39-3.39-3.39-9.6 0-9.67 5.25-15.55 5.63-6.34 15.42-6.34 6.08 0 9.09 2.56 2.24 1.92 2.24 5.06 0 11.26-19.45 11.26-.26 1.66-.26 3.07 0 2.95 1.31 4.07t3.75 1.12q2.43 0 5.02-1.12 2.59-1.12 3.68-2.92zm-13.06-6.97q4.55 0 7.17-2.82 2.63-2.69 2.63-6.97 0-1.48-.55-2.28-.54-.8-1.63-.8-1.09 0-2.02.42-.92.42-1.88 1.82-2.37 3.2-3.72 10.63zm41.22-.19q2.3-4.1 2.3-8.26 0-2.75-1.98-2.75-1.54 0-3.14 2.62-1.66 2.63-2.17 6.02L246.72 0l-13.25 1.28L240-32.64l10.56-1.28-1.15 6.46q3.13-6.46 10.17-6.46 3.72 0 5.73 1.92 2.02 1.92 2.02 5.86 0 3.93-2.59 6.43-2.6 2.49-7.01 2.49-1.92 0-2.69-.76z" fill="url(#editing-gradient-gradient)" transform="translate(115.521 98.672)"/><style/></svg>